<svg width="202" height="202" viewBox="0 0 202 202" fill="none" xmlns="http://www.w3.org/2000/svg">
<g id="Group 21">
<circle id="Oval Copy 3" opacity="0.202683" cx="101" cy="101" r="101" transform="matrix(0 -1 -1 0 202 202)" fill="url(#paint0_linear_0_10486)"/>
<g id="share(1) 2">
<g id="share(1)">
<path id="Path" d="M173.225 39.4854C172.23 39.4354 171.234 39.5702 170.288 39.8831C168.888 40.5045 167.525 43.779 166.554 48.9177C165.705 53.3681 165.34 57.8972 165.465 62.426C165.492 63.2397 165.909 63.9909 166.585 64.4454C170.941 67.5522 185.721 63.7557 187.289 63.3394C188.036 61.9103 194.844 48.5324 191.49 44.9348C188.54 41.7472 178.645 39.4854 173.225 39.4854Z" fill="white"/>
<path id="Shape" fill-rule="evenodd" clip-rule="evenodd" d="M166.212 64.9363C167.569 65.9181 169.834 66.2722 172.391 66.2722C178.348 66.2722 185.909 64.3459 187.366 63.9745C187.482 63.9451 187.559 63.9255 187.594 63.9173C187.68 63.8931 187.752 63.8347 187.793 63.7557L187.798 63.7462C188.194 63.0006 195.828 48.6251 191.962 44.4936C188.079 40.3429 173.661 37.7332 170.033 39.2866C166.405 40.84 164.457 55.442 164.824 62.4509C164.863 63.4529 165.379 64.3762 166.212 64.9363ZM170.288 39.8831C171.234 39.5702 172.23 39.4354 173.225 39.4854C178.645 39.4854 188.54 41.7472 191.489 44.9348C194.844 48.5324 188.036 61.9103 187.289 63.3394C185.721 63.7557 170.941 67.5522 166.585 64.4454C165.909 63.9909 165.492 63.2397 165.465 62.426C165.339 57.8972 165.705 53.3681 166.554 48.9177C167.525 43.779 168.888 40.5045 170.288 39.8831Z" fill="#231F20"/>
<path id="Path_2" d="M131.438 147.086C141.817 142.517 148.843 132.623 149.728 121.331L139.429 110.283L125.271 137.579" fill="white"/>
<path id="Path_3" d="M131.439 147.409C131.287 147.404 131.159 147.293 131.132 147.144C131.105 146.994 131.186 146.846 131.327 146.788C141.513 142.242 148.432 132.541 149.404 121.443L139.51 110.83L125.564 137.722C125.473 137.859 125.294 137.906 125.148 137.831C125.001 137.756 124.934 137.584 124.992 137.43L139.149 110.134C139.196 110.041 139.287 109.978 139.391 109.966C139.494 109.949 139.599 109.984 139.672 110.059L149.97 121.113C150.033 121.181 150.064 121.271 150.058 121.362C149.106 132.758 142.013 142.732 131.551 147.384C131.516 147.402 131.477 147.41 131.439 147.409Z" fill="#231F20"/>
<path id="Path_4" d="M163.362 163.962L194.514 163.36L194.085 124.189L148.34 125.836L141.974 163.962H163.362Z" fill="#231F20"/>
<path id="Shape_2" fill-rule="evenodd" clip-rule="evenodd" d="M141.974 164.273H163.362H163.368L194.52 163.652C194.603 163.65 194.681 163.616 194.738 163.556C194.796 163.497 194.827 163.417 194.825 163.335L194.396 124.189C194.396 124.104 194.36 124.022 194.296 123.965C194.234 123.91 194.155 123.879 194.072 123.878L148.328 125.525C148.179 125.53 148.056 125.64 148.035 125.786L141.669 163.913C141.651 164.002 141.676 164.094 141.737 164.161C141.795 164.232 141.882 164.273 141.974 164.273ZM163.362 163.652H142.341L148.601 126.134L193.78 124.506L194.203 163.03L163.362 163.652Z" fill="#231F20"/>
<path id="Path_5" d="M200.519 80.7313C197.731 76.9472 191.06 74.9526 186.567 74.2381C182.242 73.5546 177.911 74.2381 173.568 73.8652C169.59 73.6328 165.601 74.0228 161.744 75.021C147.251 79.0225 133.778 99.9748 133.778 99.9748L148.552 100.751C148.552 100.751 146.405 116.18 140.244 149.988C165.907 150.901 195.777 153.449 195.777 153.449C195.777 153.449 195.908 146.372 196.231 139.406C198.546 137.25 198.465 133.814 198.889 131.819C199.436 129.253 198.329 101.373 198.329 101.373L201.695 100.13C201.695 100.13 201.739 82.3592 200.519 80.7313Z" fill="#E7816B"/>
<path id="Path_6" d="M166 80.3398L154.743 154.275L168.185 155.624L183.474 80.1845L166 80.3398Z" fill="#231F20"/>
<path id="Shape_3" fill-rule="evenodd" clip-rule="evenodd" d="M168.154 155.934H168.185C168.335 155.934 168.463 155.827 168.49 155.679L183.773 80.2465C183.791 80.1536 183.766 80.0575 183.705 79.9855C183.646 79.9121 183.556 79.8707 183.462 79.8737L165.994 80.029C165.843 80.0301 165.714 80.1404 165.689 80.29L154.432 154.232C154.416 154.315 154.437 154.401 154.488 154.468C154.543 154.534 154.621 154.576 154.706 154.586L168.154 155.934ZM167.955 155.288L155.117 154.002L166.287 80.6441L183.089 80.495L167.955 155.288Z" fill="#231F20"/>
<path id="Path_7" d="M167.998 71.0691L166.063 80.3398C166.063 80.3398 168.122 86.4975 174.364 85.8451C178.099 85.4233 181.445 83.3441 183.474 80.1845L185.69 63.1468C185.69 63.1468 181.527 60.1581 184.153 50.6202C178.923 52.0778 173.397 52.1035 168.154 50.6948C168.154 50.6948 163.99 60.8664 164.096 65.6074C164.202 70.3484 167.998 71.0691 167.998 71.0691Z" fill="white"/>
<path id="Shape_4" fill-rule="evenodd" clip-rule="evenodd" d="M165.761 80.4489C165.86 80.7182 167.871 86.2179 173.462 86.2179C173.782 86.2182 174.102 86.1995 174.42 86.1619C178.257 85.7447 181.693 83.6035 183.754 80.346C183.777 80.3101 183.792 80.2699 183.798 80.228L186.013 63.1903C186.032 63.0722 185.981 62.9537 185.883 62.8858C185.845 62.861 181.931 59.9219 184.464 50.701C184.496 50.5874 184.463 50.4653 184.377 50.3841C184.29 50.3038 184.165 50.2776 184.053 50.3157C178.882 51.7395 173.424 51.7631 168.241 50.3841C168.084 50.3444 167.922 50.4267 167.861 50.5767C167.687 50.993 163.679 60.8664 163.779 65.6509C163.891 69.7891 166.666 71.007 167.625 71.3053L165.758 80.2715C165.742 80.3263 165.742 80.3844 165.758 80.4392C165.758 80.4404 165.759 80.4437 165.761 80.4489ZM174.333 85.5282C168.726 86.106 166.666 81.0482 166.399 80.315L168.309 71.1623C168.327 71.0762 168.309 70.9864 168.259 70.9138C168.212 70.8437 168.138 70.7965 168.054 70.7833L168.049 70.7822C167.838 70.7389 164.506 70.0558 164.414 65.6571C164.329 61.5209 167.573 53.1101 168.3 51.2246C168.317 51.1812 168.333 51.1412 168.347 51.1049C173.383 52.37 178.655 52.37 183.692 51.1049C181.583 59.4 184.601 62.6808 185.348 63.3021L183.163 80.0788C181.17 83.1082 177.938 85.103 174.333 85.5282Z" fill="#231F20"/>
<path id="Path_8" d="M182.186 62.3763C182.503 61.5732 183.073 60.895 183.81 60.4439C184.513 60.0577 185.277 59.795 186.069 59.6672C186.495 59.5507 186.941 59.5295 187.376 59.6051C187.672 59.6976 187.948 59.8429 188.191 60.0338C188.796 60.4438 189.236 61.0531 189.436 61.755C189.524 62.339 189.471 62.9356 189.28 63.4948C189.124 64.1151 188.884 64.711 188.565 65.2656C187.907 66.3762 186.83 67.1762 185.575 67.4858C184.321 67.7955 182.994 67.5888 181.894 66.9122" fill="white"/>
<path id="Path_9" d="M184.439 67.9375C183.487 67.939 182.552 67.6789 181.738 67.1856C181.588 67.0922 181.541 66.8957 181.633 66.7445C181.676 66.6711 181.748 66.6186 181.831 66.5987C181.914 66.5788 182.002 66.5933 182.074 66.6388C183.106 67.2576 184.338 67.4494 185.509 67.1732C186.681 66.8812 187.688 66.137 188.31 65.1041C188.613 64.5723 188.841 64.0016 188.988 63.4078C189.163 62.9012 189.215 62.36 189.137 61.8295C188.953 61.2024 188.554 60.6595 188.011 60.2948C187.8 60.1252 187.56 59.9966 187.302 59.9157C186.916 59.8541 186.521 59.8753 186.144 59.9779C185.378 60.1005 184.637 60.3504 183.954 60.7173C183.276 61.1323 182.752 61.756 182.46 62.4944C182.395 62.666 182.203 62.7522 182.031 62.687C181.859 62.6218 181.773 62.4298 181.838 62.2583C182.184 61.3926 182.799 60.6607 183.593 60.1705C184.345 59.7652 185.162 59.4939 186.007 59.3689C186.48 59.239 186.976 59.2198 187.457 59.313C187.795 59.4128 188.11 59.5774 188.384 59.7977C189.058 60.2472 189.547 60.9246 189.76 61.7052C189.857 62.3301 189.803 62.9691 189.604 63.5693C189.44 64.2215 189.189 64.8485 188.857 65.4334C188.148 66.6126 187 67.4636 185.665 67.8008C185.263 67.8956 184.852 67.9415 184.439 67.9375Z" fill="#231F20"/>
<path id="Path_10" d="M167.251 75.7045C169.474 76.2625 171.83 75.8319 173.711 74.5239C176.722 72.3181 176.691 70.7957 176.691 70.7957C176.691 70.7957 172.08 72.5728 168.222 71.2493L167.251 75.7045Z" fill="#231F20"/>
<path id="Shape_5" fill-rule="evenodd" clip-rule="evenodd" d="M167.164 76.0027C167.837 76.1775 168.529 76.2631 169.224 76.2575C170.899 76.2674 172.533 75.7403 173.885 74.7538C176.996 72.4796 176.996 70.8392 176.996 70.7709C176.997 70.67 176.945 70.576 176.859 70.5223C176.772 70.4759 176.667 70.4759 176.579 70.5223C176.536 70.541 172.024 72.2124 168.322 70.9697C168.243 70.9327 168.152 70.9327 168.073 70.9697C167.995 71.0125 167.94 71.0876 167.923 71.1748L166.953 75.6423C166.916 75.7995 167.009 75.9575 167.164 76.0027ZM173.53 74.2754C171.808 75.4691 169.67 75.9028 167.618 75.4746L168.452 71.647C171.539 72.5666 174.943 71.6905 176.25 71.2742C176.019 71.8583 175.366 72.927 173.53 74.2754Z" fill="#231F20"/>
<path id="Path_11" d="M173.568 57.2004C173.568 57.2004 169.616 61.3573 170.226 62.3018C170.836 63.2462 173.02 63.0971 173.02 63.0971" fill="white"/>
<path id="Path_12" d="M172.56 63.3891C171.819 63.3891 170.481 63.2711 169.965 62.4695C169.292 61.4381 172.099 58.2878 173.337 56.9891C173.396 56.9303 173.475 56.8972 173.558 56.8972C173.641 56.8972 173.721 56.9303 173.779 56.9891C173.838 57.0464 173.871 57.1248 173.871 57.2066C173.871 57.2884 173.838 57.3668 173.779 57.4241C171.763 59.5491 170.22 61.7736 170.475 62.1464C170.886 62.7678 172.466 62.8113 172.964 62.7678C173.134 62.7534 173.284 62.878 173.3 63.0474C173.307 63.1298 173.281 63.2116 173.227 63.2746C173.173 63.3376 173.096 63.3766 173.014 63.3829C172.989 63.3767 172.802 63.3891 172.56 63.3891Z" fill="#231F20"/>
<ellipse id="Oval" cx="178.918" cy="57.9748" rx="1.11247" ry="0.790145" transform="rotate(-68.08 178.918 57.9748)" fill="#231F20"/>
<ellipse id="Oval_2" cx="170.72" cy="56.6355" rx="1.11247" ry="0.790145" transform="rotate(-68.08 170.72 56.6355)" fill="#231F20"/>
<path id="Path_13" d="M173.014 68.6334C172.695 68.6329 172.377 68.5932 172.068 68.5154C167.761 67.4777 167.861 62.4571 167.861 62.4074C167.871 62.2373 168.014 62.1055 168.185 62.1091C168.267 62.1107 168.345 62.1453 168.401 62.2049C168.457 62.2645 168.487 62.3442 168.483 62.426C168.483 62.6124 168.402 66.993 172.217 67.9126C176.032 68.8322 177.917 62.8113 177.936 62.7491C177.961 62.6345 178.05 62.5441 178.164 62.5154C178.278 62.4867 178.398 62.5247 178.475 62.6136C178.552 62.7025 178.572 62.827 178.527 62.9356C178.446 63.1841 176.698 68.6334 173.014 68.6334Z" fill="#231F20"/>
<path id="Path_14" d="M36.9996 82.9806L60.2609 109.009L92.8067 120.374L88.6498 128.961C88.6498 128.961 67.523 125.774 59.203 124.842C50.8829 123.91 40.3662 111.433 40.3662 111.433L36.9996 82.9806Z" fill="white"/>
<path id="Shape_6" fill-rule="evenodd" clip-rule="evenodd" d="M88.6062 129.266H88.6498C88.7706 129.266 88.8805 129.196 88.9298 129.085L93.0929 120.473C93.1302 120.393 93.1302 120.299 93.0929 120.219C93.0599 120.138 92.9944 120.075 92.9125 120.045L60.4413 108.705L37.2299 82.7382C37.1388 82.6373 36.9926 82.6071 36.8689 82.6637C36.7492 82.7221 36.6775 82.8479 36.6885 82.9806L40.0551 111.47C40.0617 111.53 40.0879 111.587 40.1297 111.631C40.5591 112.147 50.8207 124.208 59.1656 125.146C65.3471 125.842 78.7594 127.821 85.1227 128.759C87.2217 129.069 88.5537 129.266 88.6062 129.266ZM59.2341 124.525C51.4554 123.649 41.5299 112.303 40.6649 111.296L37.4228 83.9126L60.0431 109.196C60.0783 109.236 60.1233 109.266 60.1737 109.283L92.3897 120.536L88.4818 128.613C86.1606 128.253 67.0127 125.401 59.2341 124.525Z" fill="#231F20"/>
<path id="Path_15" d="M48.2942 70.075C47.9706 67.894 47.0931 65.8373 46.4273 63.7433C44.7471 58.6668 44.5044 53.4288 42.7433 48.3709C40.4844 41.8653 36.147 37.1305 28.5613 37.3977C25.4379 37.3998 22.6222 39.2773 21.4236 42.1573C17.833 40.1814 13.0476 44.2016 12.8796 47.88C12.6307 53.3045 12.9791 57.9336 10.6144 63.0722C8.82224 66.9744 6.04682 70.628 5.81657 74.9154C5.58633 79.2027 8.01949 83.2105 11.5043 85.5779C14.9891 87.9453 19.3825 88.7344 23.583 88.4237C27.7834 88.113 31.847 86.7709 35.7488 85.1678C37.6689 84.4261 39.5115 83.4979 41.2498 82.3965C45.2138 79.7495 49.0534 75.1204 48.2942 70.075Z" fill="white"/>
<path id="Shape_7" fill-rule="evenodd" clip-rule="evenodd" d="M11.33 85.8326C14.4629 87.847 18.1277 88.8793 21.853 88.7965C22.4317 88.7965 23.0167 88.7779 23.5892 88.7468C28.219 88.4051 32.5688 86.8144 35.8483 85.466C37.7938 84.7199 39.6596 83.7811 41.4178 82.6637C45.4067 79.9856 49.3894 75.2944 48.6177 70.0439C48.3162 68.3927 47.8578 66.774 47.2487 65.2097C47.062 64.694 46.8815 64.172 46.7073 63.6563C45.9576 61.212 45.3693 58.7212 44.9462 56.2C44.4961 53.5167 43.8535 50.8691 43.0233 48.2777C40.391 40.7157 35.3754 36.8695 28.5302 37.0932C25.4129 37.0991 22.5832 38.9132 21.2805 41.741C19.7064 41.0837 17.9099 41.2369 16.4702 42.1511C14.2673 43.3814 12.668 45.7301 12.5684 47.8676C12.5638 47.9661 12.5592 48.0648 12.5545 48.1636C12.5149 49.0052 12.4751 49.8525 12.4751 50.6699C12.3568 55.0194 12.251 58.7476 10.3344 62.9418C9.84724 63.9997 9.27668 65.0577 8.72182 66.0865L8.68531 66.1542C7.20426 68.9006 5.67342 71.7402 5.5054 74.9029C5.28138 78.9977 7.5963 83.2788 11.33 85.8326ZM16.7689 42.6854C17.556 42.2207 18.4496 41.966 19.3638 41.946L19.37 41.9709C20.0373 41.9654 20.6948 42.1301 21.2805 42.4493C21.3593 42.4863 21.4506 42.4863 21.5294 42.4493C21.6089 42.422 21.674 42.3638 21.7099 42.2878C22.8573 39.5222 25.557 37.7161 28.5551 37.7084C35.226 37.4722 39.8683 41.0948 42.457 48.4765C43.2715 51.041 43.8955 53.6619 44.3239 56.3181C44.755 58.8603 45.3516 61.3718 46.1099 63.8365C46.2465 64.2505 46.3907 64.6606 46.5335 65.0669C46.573 65.179 46.6123 65.2908 46.6513 65.4023C47.2471 66.9286 47.6972 68.5076 47.9954 70.1185C48.7297 75.0831 44.8964 79.5818 41.0693 82.1355C39.3496 83.2284 37.5257 84.1483 35.6243 84.882C32.3884 86.2117 28.0697 87.7961 23.5518 88.113C19.034 88.4299 14.8211 87.4544 11.6723 85.3231C8.08791 82.8874 5.90989 78.8113 6.11525 74.934C6.28297 71.9194 7.77779 69.1402 9.21919 66.4602L9.2267 66.4462C9.79921 65.3899 10.3904 64.2963 10.8944 63.2027C12.8611 58.916 12.9722 54.9381 13.09 50.721L13.0911 50.6823C13.116 49.7565 13.1409 48.8431 13.1845 47.8924C13.2716 45.96 14.7464 43.8163 16.7689 42.6854Z" fill="#231F20"/>
<path id="Path_16" d="M48.4124 86.8827C48.151 85.8513 47.871 84.8322 47.5599 83.8194C46.7384 81.1041 45.7614 77.1647 43.8261 75.0086C40.6711 71.5165 33.5708 71.4047 29.2583 71.3798C22.5811 71.3425 15.7546 72.9084 10.2971 76.7421C1.89614 82.6451 0.340417 91.2136 1.30497 100.77C2.41265 111.457 3.79413 122.12 5.29385 132.764C5.4432 133.857 7.24162 150.118 8.0506 150.125C8.10661 150.125 63.4345 150.168 61.6672 151.473C59.178 142.842 57.3112 134.075 55.3074 125.376C54.8842 123.512 54.1313 121.822 53.6708 120.007C53.0049 117.385 53.3098 114.508 53.0485 111.824C52.5071 105.61 51.1816 99.4963 49.8872 93.407C49.433 91.2198 48.96 89.0388 48.4124 86.8827Z" fill="#E7816B"/>
<path id="Path_17" d="M64.0941 164.167L57.753 136.38L6.53842 140.593L5.88501 164.167H64.0941Z" fill="#231F20"/>
<path id="Shape_8" fill-rule="evenodd" clip-rule="evenodd" d="M5.88501 164.478H64.0941C64.1775 164.468 64.2536 164.426 64.3057 164.36C64.3633 164.286 64.386 164.191 64.3679 164.099L58.0268 136.312C57.9865 136.164 57.8499 136.064 57.697 136.069L6.48241 140.282C6.32404 140.298 6.20164 140.428 6.19616 140.587L5.57387 164.161C5.57307 164.244 5.60426 164.324 5.66099 164.385C5.72035 164.444 5.80092 164.478 5.88501 164.478ZM63.7145 163.857H6.22105L6.82467 140.879L57.4916 136.716L63.7145 163.857Z" fill="#231F20"/>
<path id="Path_18" d="M33.7139 94.7864C33.8845 94.8562 34.0652 94.8981 34.2491 94.9107C35.4127 94.9977 36.3275 93.9165 36.8067 92.854C37.877 90.4866 37.877 87.7899 37.6903 85.2051C37.6546 83.6784 37.3273 82.1726 36.7258 80.7686C36.1536 79.6791 35.3858 78.704 34.4606 77.8917C32.7991 76.3569 30.7829 75.0707 28.5364 74.7849C26.29 74.499 23.0043 75.7169 22.3135 78.1775C21.5917 80.8369 24.392 83.515 25.7486 85.4722C27.7069 88.3011 29.848 90.9994 32.1582 93.5499C32.5754 94.0752 33.1076 94.4982 33.7139 94.7864Z" fill="#231F20"/>
<path id="Shape_9" fill-rule="evenodd" clip-rule="evenodd" d="M34.2242 95.2214H34.386C35.9479 95.2214 36.844 93.5437 37.0867 92.9907C38.2131 90.5115 38.182 87.6843 38.0015 85.1989C37.9612 83.6314 37.6234 82.0859 37.0058 80.6443C36.4197 79.5198 35.6283 78.5145 34.6723 77.6804C32.6623 75.8163 30.6087 74.7476 28.5738 74.5115C25.9726 74.2008 22.7243 75.5864 22.0335 78.134C21.4112 80.4082 23.1661 82.6513 24.5725 84.447C24.921 84.8944 25.2445 85.3107 25.5059 85.6897C27.4764 88.5163 29.6256 91.2143 31.9404 93.7674C32.3877 94.3244 32.9558 94.7727 33.6019 95.0785C33.8023 95.1526 34.0115 95.2006 34.2242 95.2214ZM34.274 94.5938C34.12 94.5823 33.9688 94.5467 33.8259 94.4882C33.2678 94.2097 32.7821 93.8056 32.4071 93.3076C30.1064 90.7708 27.9737 88.0871 26.0224 85.2734C25.7589 84.9226 25.4513 84.5278 25.1256 84.1096C25.1051 84.0834 25.0846 84.0571 25.0641 84.0307C23.7386 82.3468 22.0958 80.2404 22.6309 78.2645C23.2283 76.0587 26.2029 74.8284 28.4991 75.0956C30.4033 75.3192 32.3387 76.3321 34.2491 78.1029C35.1488 78.8859 35.8939 79.83 36.4458 80.8866C37.0268 82.2653 37.3435 83.7407 37.3792 85.2361C37.5535 87.6222 37.5846 90.3748 36.5205 92.7297C36.0911 93.6742 35.251 94.6808 34.274 94.5938Z" fill="#231F20"/>
<rect id="Rectangle" x="60.5845" y="45.2703" width="87.4817" height="93.2536" fill="white"/>
<path id="Shape_10" fill-rule="evenodd" clip-rule="evenodd" d="M60.5845 138.828H148.06C148.232 138.828 148.371 138.689 148.371 138.518V45.2703C148.371 45.0987 148.232 44.9596 148.06 44.9596H60.5845C60.4126 44.9596 60.2733 45.0987 60.2733 45.2703V138.518C60.2733 138.689 60.4126 138.828 60.5845 138.828ZM147.749 138.207H60.8956V45.581H147.749V138.207Z" fill="#231F20"/>
<rect id="Rectangle_2" x="66.2286" y="52.4408" width="76.1809" height="68.4551" fill="white"/>
<path id="Shape_11" fill-rule="evenodd" clip-rule="evenodd" d="M66.2286 121.207H142.416C142.5 121.207 142.582 121.172 142.64 121.111C142.699 121.05 142.73 120.968 142.727 120.884V52.4408C142.727 52.2692 142.588 52.1301 142.416 52.1301H66.2286C66.0568 52.1301 65.9175 52.2692 65.9175 52.4408V120.896C65.9175 121.068 66.0568 121.207 66.2286 121.207ZM142.105 120.585H66.5398V52.7515H142.105V120.585Z" fill="#D1D3D4"/>
<path id="Path_19" d="M133.89 76.3507C132.795 77.5561 131.75 78.8361 130.605 79.9608C127.611 83.0054 124.575 86.0066 121.556 89.0264C121.451 89.132 121.37 89.275 121.245 89.3309C120.704 89.567 120.001 90.0889 119.64 89.9087C119.146 89.5271 118.845 88.9474 118.818 88.3243C118.731 85.9942 118.787 83.6641 118.787 81.1724C117.804 81.1724 116.877 81.1352 115.95 81.1724C112.446 81.3402 109.073 82.0361 106.024 83.8567C102.256 85.9438 99.8729 89.8639 99.7576 94.1651C99.7898 95.3237 99.976 96.4729 100.311 97.5825C100.442 98.1666 100.772 98.8253 100.038 99.0552C99.4852 99.0573 98.9704 98.7757 98.6748 98.3095C97.7278 96.4316 96.969 94.4647 96.4097 92.4377C94.3126 82.9682 99.5212 74.2878 108.936 71.3115C111.65 70.4451 114.482 70.0028 117.331 70.0004H118.781C118.781 68.1798 118.781 66.4462 118.781 64.7126C118.763 63.8808 118.819 63.049 118.949 62.2272C119.136 61.2827 119.733 61.059 120.573 61.5251C120.913 61.7377 121.223 61.9947 121.494 62.2893C125.29 66.0796 129.082 69.8761 132.87 73.6788C133.242 74.1144 133.582 74.5777 133.884 75.0645L133.89 76.3507Z" fill="#E7816B"/>
<path id="Path_20" d="M86.5153 110.507C84.3847 110.102 82.4458 109.01 80.9956 107.4C79.6046 105.796 78.842 103.743 78.8487 101.621C78.8487 93.3759 78.7989 85.1367 78.8487 76.8913C78.837 74.5466 79.7651 72.2946 81.4261 70.6372C83.0872 68.9798 85.3432 68.0547 87.6914 68.068C89.2285 68.0307 90.7593 68.0307 92.2964 68.068C93.541 68.068 94.325 68.8074 94.3126 69.8886C94.3002 70.9697 93.5347 71.5849 92.3213 71.5973C90.8215 71.5973 89.328 71.5973 87.8283 71.5973C86.3846 71.5513 84.9849 72.0969 83.9542 73.1073C82.9235 74.1177 82.3514 75.5051 82.3708 76.9472C82.3459 85.232 82.3459 93.5168 82.3708 101.802C82.3707 103.207 82.9339 104.553 83.9347 105.541C84.9355 106.528 86.2906 107.075 87.6976 107.058C95.8808 107.058 109.988 107.058 118.19 107.058C119.653 107.123 121.077 106.576 122.12 105.549C123.162 104.522 123.729 103.108 123.685 101.646C123.728 99.0552 123.685 96.4641 123.685 93.873C123.685 92.6303 124.22 91.9717 125.234 91.835C126.081 91.7169 127.101 92.301 127.101 93.146C127.101 96.607 127.356 100.105 126.939 103.517C126.479 107.245 123.579 109.73 119.839 110.432C119.7 110.472 119.565 110.524 119.434 110.588L86.5153 110.507Z" fill="#E7816B"/>
<path id="Path_21" d="M141.849 127.799H77.3365C77.1647 127.799 77.0254 127.66 77.0254 127.489C77.0254 127.317 77.1647 127.178 77.3365 127.178H141.849C142.021 127.178 142.161 127.317 142.161 127.489C142.161 127.66 142.021 127.799 141.849 127.799Z" fill="#D1D3D4"/>
<path id="Path_22" d="M125.813 132.64H77.3365C77.1647 132.64 77.0254 132.501 77.0254 132.329C77.0254 132.157 77.1647 132.018 77.3365 132.018H125.813C125.985 132.018 126.124 132.157 126.124 132.329C126.121 132.499 125.983 132.636 125.813 132.64Z" fill="#D1D3D4"/>
<ellipse id="Oval_3" cx="69.8193" cy="128.744" rx="3.5844" ry="3.57903" fill="white"/>
<path id="Shape_12" fill-rule="evenodd" clip-rule="evenodd" d="M66.21 130.239C66.8159 131.695 68.2406 132.642 69.8192 132.64C71.9717 132.636 73.7148 130.893 73.7148 128.744C73.7148 127.167 72.7635 125.746 71.3047 125.144C69.846 124.541 68.1673 124.876 67.0518 125.991C65.9364 127.107 65.6042 128.783 66.21 130.239ZM66.7844 127.494C67.2936 126.27 68.4917 125.473 69.8192 125.475C71.6256 125.479 73.0891 126.94 73.0925 128.744C73.095 130.069 72.2969 131.266 71.0709 131.774C69.8449 132.282 68.4328 132.003 67.4941 131.065C66.5554 130.128 66.2752 128.718 66.7844 127.494Z" fill="#D1D3D4"/>
<path id="Path_23" d="M40.2044 51.2167C40.2044 51.2167 43.3159 58.4555 42.4135 64.1658C41.9688 67.4188 39.6391 70.101 36.4769 71.0008L37.0992 80.9736C37.0992 80.9736 37.4788 86.0687 31.1687 85.6897C27.454 85.4564 24.1227 83.3258 22.3571 80.054L20.484 61.7798C20.484 61.7798 27.3292 57.2439 26.2651 50.701C26.2651 50.701 34.9585 54.2241 40.2044 51.2167Z" fill="white"/>
<path id="Shape_13" fill-rule="evenodd" clip-rule="evenodd" d="M31.1812 86.0315H31.8533C33.7077 86.0315 35.139 85.5344 36.1097 84.5713C37.0086 83.6008 37.4833 82.3129 37.429 80.9922L36.8067 71.268C39.9612 70.2473 42.2562 67.5191 42.7185 64.2404C43.6519 58.5052 40.6089 51.4155 40.4782 51.1173C40.4445 51.0348 40.3762 50.9712 40.2915 50.9433C40.2099 50.9091 40.118 50.9091 40.0364 50.9433C35.3627 53.6339 27.6876 50.8809 26.5307 50.4659C26.4399 50.4333 26.3892 50.4151 26.3833 50.4151C26.2793 50.3725 26.1604 50.3891 26.0722 50.4586C25.9838 50.5279 25.9407 50.6402 25.9602 50.7507C26.9558 57.014 20.3782 61.4753 20.3098 61.5188C20.2142 61.584 20.1618 61.6959 20.1729 61.8109L22.0771 80.1161C22.0808 80.153 22.0913 80.1888 22.1082 80.2218C23.9393 83.5794 27.3612 85.7706 31.1812 86.0315ZM31.2185 85.3915C27.6397 85.1531 24.4278 83.1142 22.6931 79.9794L20.8449 61.9538C21.8406 61.233 27.2483 57.0264 26.6696 51.1981C28.5676 51.894 35.4252 54.0812 40.0675 51.6765C40.6462 53.1243 42.93 59.2509 42.1397 64.141C41.7307 67.2802 39.4893 69.8749 36.4395 70.7398C36.29 70.7732 36.187 70.9102 36.1968 71.0629L36.8191 81.0047C36.8561 82.1506 36.443 83.2655 35.6679 84.1115C34.7158 85.0808 33.2161 85.5095 31.2185 85.3915Z" fill="#231F20"/>
<path id="Path_24" d="M23.8568 60.2637C23.8568 60.2637 20.2911 53.5406 17.1298 58.1262C13.9686 62.7119 19.3203 67.1732 22.3757 66.5581" fill="white"/>
<path id="Path_25" d="M21.7659 66.9371C20.0173 66.9371 17.9264 65.6944 16.7876 63.9359C15.5212 62.1297 15.569 59.7133 16.9058 57.9585C17.7459 56.7157 18.7043 56.1565 19.7559 56.2249C22.1642 56.3678 24.112 59.953 24.1618 60.1208C24.2177 60.2679 24.1547 60.4335 24.015 60.5064C23.8754 60.5793 23.7032 60.5365 23.6141 60.4066C23.6141 60.4066 21.7473 56.9705 19.6688 56.8462C18.8391 56.7965 18.0737 57.2853 17.3726 58.3126C16.191 59.8622 16.1458 61.996 17.2605 63.5942C18.4367 65.3837 20.7018 66.5829 22.3011 66.2598C22.4708 66.2293 22.6338 66.3397 22.6683 66.5084C22.6847 66.5884 22.6682 66.6716 22.6226 66.7394C22.5769 66.8071 22.506 66.8537 22.4256 66.8687C22.2084 66.9128 21.9875 66.9357 21.7659 66.9371Z" fill="#231F20"/>
<path id="Path_26" d="M37.5908 64.1223C37.0834 64.1218 36.5771 64.074 36.0786 63.9794C35.9974 63.9661 35.9253 63.9198 35.8793 63.8516C35.8334 63.7833 35.8177 63.6992 35.8359 63.619C35.851 63.5371 35.8983 63.4647 35.9674 63.418C36.0364 63.3712 36.1213 63.3541 36.2031 63.3705C36.2031 63.3705 38.2193 63.762 39.1714 63.1841C39.3083 62.4074 37.3916 59.8039 35.9977 58.2132C35.9431 58.1519 35.9156 58.0711 35.9214 57.9892C35.9273 57.9073 35.966 57.8312 36.0288 57.7783C36.1519 57.6591 36.3476 57.6591 36.4707 57.7783C37.0929 58.4618 40.0115 61.9538 39.8061 63.2338C39.7775 63.4343 39.6613 63.6118 39.4888 63.7185C38.9018 64.015 38.2478 64.1542 37.5908 64.1223Z" fill="#231F20"/>
<path id="Path_27" d="M36.4706 71.0132C36.4706 71.0132 31.1812 72.0322 28.0697 71.4544C28.0697 71.4544 31.9217 79.0847 36.9934 78.7119L36.4706 71.0132Z" fill="#231F20"/>
<path id="Shape_14" fill-rule="evenodd" clip-rule="evenodd" d="M27.7959 71.5849C27.9203 71.9018 31.6167 79.0412 36.6324 79.0412C36.7652 79.0412 36.8958 79.0453 37.0245 79.0536C37.194 79.0404 37.3214 78.8937 37.3107 78.7243L36.788 71.0256C36.7807 70.9381 36.738 70.8574 36.6697 70.8019C36.5986 70.7485 36.5088 70.7261 36.4208 70.7398C36.3648 70.7522 31.15 71.7402 28.1319 71.1748C28.0138 71.1314 27.8812 71.1633 27.7959 71.2555C27.7313 71.3558 27.7313 71.4846 27.7959 71.5849ZM36.6386 78.4198C32.7369 78.4198 29.6254 73.5111 28.6484 71.852C31.3429 72.1689 35.0456 71.5849 36.1595 71.386L36.6386 78.4198Z" fill="#231F20"/>
<ellipse id="Oval_4" cx="32.9845" cy="57.0293" rx="0.78407" ry="1.37323" transform="rotate(-6.85 32.9845 57.0293)" fill="#231F20"/>
<ellipse id="Oval_5" cx="39.8073" cy="56.7836" rx="0.78407" ry="1.37323" transform="rotate(-6.85 39.8073 56.7836)" fill="#231F20"/>
<path id="Path_28" d="M34.4419 67.1111C33.9891 67.1079 33.542 67.0105 33.1289 66.8253C31.6105 66.1666 30.6397 64.3398 30.2353 61.3511C30.2112 61.1795 30.331 61.0209 30.5028 60.9969C30.6747 60.9729 30.8335 61.0925 30.8575 61.2641C31.2309 64.0043 32.1021 65.682 33.384 66.235C34.9584 66.9309 36.732 65.7192 36.7506 65.7068C36.8415 65.6364 36.9639 65.6219 37.0688 65.669C37.1737 65.7161 37.2441 65.8171 37.2517 65.9317C37.2594 66.0463 37.2031 66.1558 37.1053 66.2163C36.3174 66.7546 35.3955 67.0643 34.4419 67.1111Z" fill="#231F20"/>
<path id="Path_29" d="M118.047 138.841C117.944 138.153 117.877 137.46 117.848 136.765C117.801 135.322 118.027 133.882 118.513 132.522C118.662 131.916 118.995 131.371 119.466 130.962C119.969 130.567 120.691 130.618 121.133 131.08C121.376 131.578 121.398 132.155 121.196 132.671C120.871 134.114 120.798 135.602 120.978 137.07C121.214 135.094 121.476 133.043 122.552 131.378C122.776 130.988 123.095 130.661 123.479 130.428C123.872 130.193 124.362 130.193 124.755 130.428C125.309 130.831 125.265 131.67 125.197 132.329C125.022 134.068 125.049 135.822 125.278 137.555C125.154 136.031 125.265 134.496 125.608 133.006C125.832 132.031 126.273 130.956 127.226 130.645C127.426 130.575 127.641 130.562 127.848 130.608C128.283 130.755 128.601 131.13 128.675 131.583C128.747 132.028 128.747 132.481 128.675 132.925C128.496 134.675 128.55 136.441 128.837 138.176C128.613 136.654 128.67 135.104 129.005 133.603C129.093 133.002 129.333 132.433 129.702 131.95C130.088 131.459 130.743 131.267 131.333 131.471C131.754 131.695 132.046 132.101 132.123 132.571C132.196 133.036 132.212 133.507 132.173 133.976C132.13 135.747 132.459 137.508 133.137 139.145C133.697 140.506 134.425 142.016 134.295 143.538C134.061 145.152 132.956 146.507 131.42 147.061C129.901 147.586 128.264 147.664 126.703 147.285C121.556 146.266 117.306 143.818 115.502 138.903" fill="white"/>
<path id="Path_30" d="M128.881 147.857C128.135 147.853 127.39 147.776 126.659 147.627C120.735 146.452 116.883 143.563 115.203 139.04C115.141 138.868 115.23 138.679 115.402 138.617C115.574 138.555 115.763 138.644 115.825 138.816C117.418 143.116 121.115 145.868 126.802 146.993C128.303 147.364 129.878 147.292 131.339 146.788C132.759 146.277 133.784 145.029 134.009 143.538C134.121 142.252 133.579 140.966 133.056 139.729L132.876 139.288C132.184 137.608 131.847 135.804 131.886 133.988V133.771C131.919 133.401 131.905 133.03 131.843 132.664C131.779 132.293 131.55 131.971 131.221 131.788C130.765 131.654 130.273 131.809 129.976 132.18C129.644 132.625 129.43 133.146 129.354 133.696C129.021 135.158 128.964 136.668 129.186 138.151C129.212 138.326 129.093 138.489 128.918 138.518C128.759 138.538 128.609 138.437 128.57 138.282C128.276 136.518 128.222 134.722 128.408 132.944V132.838C128.467 132.462 128.467 132.078 128.408 131.701C128.352 131.361 128.113 131.079 127.786 130.968C127.63 130.936 127.469 130.947 127.319 130.999C126.665 131.211 126.193 131.931 125.912 133.124C125.577 134.582 125.47 136.083 125.595 137.573C125.574 137.719 125.457 137.831 125.31 137.847C125.164 137.863 125.025 137.779 124.973 137.642C124.741 135.884 124.713 134.105 124.892 132.341C124.954 131.72 124.985 131.037 124.581 130.738C124.293 130.568 123.935 130.568 123.647 130.738C123.309 130.942 123.028 131.229 122.832 131.571C121.774 133.211 121.532 135.299 121.314 137.163C121.292 137.322 121.157 137.441 120.996 137.443C120.836 137.441 120.701 137.322 120.679 137.163C120.493 135.66 120.566 134.136 120.897 132.658C121.077 132.233 121.077 131.754 120.897 131.329C120.794 131.19 120.639 131.1 120.467 131.08C120.191 131.04 119.91 131.109 119.683 131.273C119.266 131.644 118.973 132.134 118.843 132.677C118.363 133.996 118.141 135.394 118.19 136.797C118.19 137.014 118.221 137.207 118.233 137.387C118.255 137.876 118.307 138.364 118.389 138.847C118.381 138.998 118.269 139.123 118.12 139.148C117.971 139.173 117.824 139.092 117.767 138.953C117.682 138.449 117.628 137.941 117.605 137.43C117.605 137.25 117.605 137.057 117.561 136.846C117.509 135.366 117.742 133.89 118.246 132.497C118.414 131.827 118.786 131.226 119.31 130.776C119.67 130.518 120.115 130.407 120.555 130.465C120.895 130.512 121.201 130.694 121.407 130.968C121.716 131.543 121.759 132.223 121.525 132.832C121.523 132.865 121.523 132.899 121.525 132.932C121.727 132.361 121.992 131.815 122.316 131.304C122.571 130.868 122.933 130.505 123.367 130.247C123.869 129.954 124.494 129.971 124.979 130.291C125.601 130.763 125.601 131.633 125.601 132.236C125.825 131.431 126.412 130.776 127.188 130.465C127.452 130.371 127.737 130.356 128.01 130.421C128.573 130.6 128.988 131.081 129.08 131.664C129.137 131.948 129.154 132.239 129.13 132.528C129.238 132.303 129.376 132.094 129.54 131.906C130.015 131.304 130.826 131.078 131.544 131.347C132.055 131.615 132.414 132.103 132.515 132.671C132.588 133.081 132.611 133.498 132.583 133.913V134.131C132.55 135.857 132.869 137.572 133.523 139.17L133.704 139.605C134.233 140.848 134.83 142.271 134.705 143.718C134.471 145.456 133.285 146.918 131.631 147.509C130.746 147.803 129.812 147.921 128.881 147.857Z" fill="#231F20"/>
<path id="Path_31" d="M183.151 104.144L182.205 118.398C182.205 118.398 152.957 95.4078 148.06 94.4198V98.44C148.06 98.44 139.927 97.4458 139.279 99.0614C138.632 100.677 139.734 106.816 141.849 108.059C143.094 108.81 153.604 108.873 153.604 108.873C153.604 108.873 155.092 112.514 169.591 125.854C184.09 139.195 197.731 146.328 198.584 133.833C199.436 121.337 200.519 100.279 200.519 100.279" fill="white"/>
<path id="Path_32" d="M193.219 140.612C188.073 140.612 179.598 135.479 169.373 126.072C156.623 114.334 153.903 110.09 153.405 109.177C151.669 109.177 142.932 109.053 141.688 108.32C139.36 106.946 138.284 100.658 138.981 98.9247C139.678 97.1911 145.776 97.8311 147.742 98.0485V94.3887C147.744 94.2926 147.787 94.2018 147.861 94.1402C147.936 94.0809 148.033 94.0561 148.128 94.0718C152.752 95.0039 177.998 114.651 181.925 117.739L182.827 104.107C182.8 103.973 182.86 103.837 182.977 103.766C183.094 103.696 183.243 103.706 183.349 103.792C183.455 103.878 183.495 104.022 183.449 104.15L182.528 118.398C182.522 118.517 182.447 118.622 182.336 118.665C182.227 118.716 182.1 118.701 182.006 118.628C181.726 118.404 154.14 96.7499 148.402 94.8175V98.4151C148.403 98.5073 148.365 98.5954 148.296 98.6575C148.227 98.7206 148.134 98.7502 148.041 98.7382C144.768 98.3344 139.951 98.2039 139.597 99.167C139.005 100.64 140.082 106.623 142.03 107.773C142.907 108.289 149.441 108.512 153.623 108.543C153.754 108.542 153.873 108.621 153.922 108.742C153.922 108.773 155.646 112.551 169.828 125.606C181.464 136.299 190.674 141.388 195.155 139.642C197.022 138.903 198.061 136.933 198.266 133.795C199.106 121.449 200.189 100.447 200.202 100.242C200.205 100.157 200.242 100.076 200.305 100.019C200.369 99.9618 200.452 99.9324 200.538 99.9375C200.623 99.9407 200.703 99.9781 200.761 100.041C200.818 100.104 200.848 100.188 200.843 100.273C200.843 100.484 199.747 121.492 198.907 133.826C198.671 137.231 197.488 139.419 195.379 140.22C194.691 140.488 193.958 140.621 193.219 140.612Z" fill="#231F20"/>
<path id="Path_33" d="M182.205 118.367L189.218 123.586L182.205 118.367Z" fill="white"/>
<path id="Path_34" d="M189.218 123.91C189.15 123.906 189.083 123.885 189.025 123.847L182.012 118.628C181.872 118.518 181.845 118.318 181.95 118.174C182.057 118.036 182.256 118.008 182.398 118.112L189.411 123.332C189.519 123.416 189.562 123.559 189.519 123.689C189.476 123.818 189.355 123.907 189.218 123.91Z" fill="#231F20"/>
<path id="Path_35" d="M20.0049 92.6365C20.0049 92.6365 32.0026 114.881 32.3262 115.751C32.4382 116.043 57.0499 102.883 57.9522 101.087C57.6565 99.071 57.8551 97.0134 58.5309 95.0909C58.9292 94.0408 59.6635 93.9103 60.5347 93.1709C60.4226 94.483 60.3976 95.8011 60.46 97.1165C62.1116 95.3731 63.8967 93.761 65.7993 92.2948C66.2014 91.8701 66.792 91.6782 67.3674 91.7852C67.6255 91.9151 67.8413 92.1155 67.9897 92.3631C70.5411 95.9484 68.4129 100.254 66.5834 103.61C63.1359 109.923 57.9708 113.843 52.4822 118.255C48.8272 121.172 45.0241 123.9 41.0881 126.426C38.0403 128.485 34.7996 130.243 31.4115 131.677C29.3828 132.484 26.5825 133.541 24.4294 132.534C16.6196 128.918 7.66484 110.438 5.21924 102.305" fill="white"/>
<path id="Path_36" d="M26.4642 133.255C25.7269 133.266 24.9962 133.115 24.3235 132.814C19.899 130.769 15.487 124.32 12.5685 119.268C9.4506 113.924 6.89792 108.27 4.95161 102.398C4.9233 102.243 5.01585 102.091 5.16687 102.045C5.3179 101.999 5.47951 102.073 5.54279 102.218C8.03195 110.581 17.0552 128.769 24.5849 132.254C26.5389 133.155 29.0903 132.254 31.3243 131.391C34.69 129.962 37.9097 128.212 40.9387 126.165C44.868 123.644 48.6649 120.923 52.3142 118.013L53.2601 117.249C58.3317 113.191 63.1172 109.357 66.3282 103.461C68.2635 99.9188 70.1242 95.8676 67.7532 92.5433C67.6339 92.3425 67.4588 92.1806 67.2492 92.0773C66.8571 91.922 66.3655 92.2451 66.0046 92.5371C64.1187 93.9981 62.3464 95.5996 60.7027 97.3278C60.6184 97.4161 60.4902 97.447 60.3749 97.4068C60.2596 97.3667 60.1785 97.2628 60.1675 97.1414C60.1177 96.5697 60.1239 94.9045 60.1675 93.8357L59.9497 93.9849C59.437 94.2488 59.0387 94.6908 58.8296 95.2276C58.1785 97.0976 57.9844 99.0958 58.2633 101.056C58.2846 101.118 58.2846 101.186 58.2633 101.249C57.7406 102.292 50.8767 106.257 45.1952 109.395C41.9593 111.19 32.9298 116.093 32.3386 116.093C32.2121 116.084 32.1014 116.005 32.0524 115.888C31.8035 115.217 23.8942 100.497 19.7497 92.8105C19.6672 92.6595 19.7229 92.4703 19.8742 92.388C20.0254 92.3056 20.2148 92.3613 20.2973 92.5122C20.764 93.3822 31.231 112.8 32.5129 115.403C35.2261 114.322 56.2968 102.752 57.6285 101C57.3479 98.9682 57.5614 96.8987 58.2508 94.9666C58.5099 94.3173 58.9904 93.7804 59.6074 93.4505C59.8646 93.2871 60.1119 93.1086 60.348 92.9161C60.4466 92.8306 60.5883 92.8157 60.7027 92.8788C60.8141 92.9432 60.8755 93.0684 60.8582 93.1957C60.7645 94.2451 60.7292 95.2989 60.7524 96.3522C62.2721 94.7921 63.8981 93.3388 65.6188 92.0027C66.129 91.6113 66.8073 91.1888 67.4856 91.4497C67.8097 91.5994 68.084 91.8388 68.2759 92.1394C71.0638 96.054 68.4502 100.838 66.8882 103.715C63.615 109.718 58.7985 113.589 53.6583 117.69L52.7062 118.454C49.0451 121.38 45.2336 124.114 41.2872 126.644C38.2229 128.713 34.9657 130.481 31.5608 131.925C29.9571 132.674 28.2299 133.125 26.4642 133.255Z" fill="#231F20"/>
<path id="Path_37" d="M20.0048 92.9223C19.8943 92.9217 19.7924 92.8626 19.7372 92.767L13.7134 82.5084C13.6258 82.3591 13.6759 82.1671 13.8254 82.0796C13.9749 81.9921 14.1672 82.0422 14.2548 82.1915L20.291 92.4812C20.3336 92.5517 20.3457 92.6365 20.3246 92.7161C20.3035 92.7957 20.2509 92.8634 20.179 92.9037C20.1244 92.9284 20.0634 92.9349 20.0048 92.9223Z" fill="#231F20"/>
<path id="Path_38" d="M183.151 104.467C183.067 104.459 182.989 104.418 182.935 104.353C182.881 104.287 182.856 104.203 182.865 104.119L184.19 89.6975C184.21 89.5238 184.364 89.3971 184.539 89.4117C184.625 89.4162 184.705 89.4562 184.761 89.5222C184.816 89.5881 184.842 89.6741 184.831 89.7596L183.499 104.175C183.493 104.26 183.453 104.34 183.387 104.395C183.321 104.45 183.236 104.476 183.151 104.467Z" fill="#231F20"/>
</g>
</g>
</g>
<defs>
<linearGradient id="paint0_linear_0_10486" x1="0" y1="202" x2="202" y2="202" gradientUnits="userSpaceOnUse">
<stop stop-color="#5D0202" stop-opacity="0.01"/>
<stop offset="1" stop-color="#5D0202" stop-opacity="0.497569"/>
</linearGradient>
</defs>
</svg>
